<?xml version="1.0" encoding="UTF-8" standalone="no"?>
<svg width="80px" height="69px" viewBox="0 0 80 69" version="1.1" xmlns="http://www.w3.org/2000/svg" xmlns:xlink="http://www.w3.org/1999/xlink" xmlns:sketch="http://www.bohemiancoding.com/sketch/ns">
    <title>Untitled</title>
    <description>Created with Sketch (http://www.bohemiancoding.com/sketch)</description>
    <defs></defs>
    <g id="Page-1" stroke="none" stroke-width="1" fill="none" fill-rule="evenodd" sketch:type="MSPage">
        <path d="M2.556,51.671 L1.924,51.671 L1.924,54.213 L2.584,54.227 C3.511,54.241 3.821,53.708 3.821,52.866 C3.821,51.979 3.371,51.671 2.556,51.671 L2.556,51.671 Z M4.102,59.762 C4.045,59.622 3.132,57.22 2.936,56.812 C2.542,55.955 2.374,55.773 1.91,55.773 L1.91,59.762 L0,59.762 L0,50 L2.57,50 C4.818,50 5.913,50.955 5.913,52.766 C5.913,54.354 5.043,55.267 4.031,55.407 C4.354,55.562 4.691,56.026 4.902,56.475 C5.225,57.177 6.138,59.2 6.363,59.762 L4.102,59.762 Z" id="Fill-450" fill="#1A1918" sketch:type="MSShapeGroup"></path>
        <path d="M9.54,53.813 C9.414,53.518 9.203,53.335 8.852,53.335 C8.248,53.335 7.967,53.77 7.953,54.951 L9.68,54.951 C9.68,54.474 9.652,54.08 9.54,53.813 L9.54,53.813 Z M7.953,56.285 L7.953,56.412 C7.953,56.791 7.995,57.17 8.163,57.479 C8.36,57.844 8.697,58.055 9.147,58.055 C9.709,58.055 10.214,57.802 10.734,57.339 L11.492,58.547 C10.72,59.249 9.933,59.544 9.034,59.544 C7.096,59.544 6,58.182 6,55.794 C6,54.557 6.253,53.617 6.773,52.942 C7.264,52.309 7.967,52 8.81,52 C9.639,52 10.256,52.267 10.706,52.746 C11.31,53.405 11.548,54.403 11.548,55.906 L11.548,56.285 L7.953,56.285 Z" id="Fill-452" fill="#1A1918" sketch:type="MSShapeGroup"></path>
        <path d="M16.495,51.699 L13.924,51.699 L13.924,53.876 L16.018,53.876 L16.018,55.506 L13.924,55.506 L13.924,59.762 L12,59.762 L12,50 L16.706,50 L16.495,51.699 Z" id="Fill-454" fill="#1A1918" sketch:type="MSShapeGroup"></path>
        <path d="M19.866,53.462 C19.108,53.462 19.009,54.515 19.009,55.779 C19.009,56.861 19.023,58.097 19.894,58.097 C20.681,58.097 20.751,56.861 20.751,55.625 C20.751,54.515 20.681,53.462 19.866,53.462 M19.852,59.558 C17.857,59.558 17,57.858 17,55.779 C17,53.729 17.928,52 19.894,52 C21.524,52 22.774,53.153 22.774,55.667 C22.774,57.999 21.678,59.558 19.852,59.558" id="Fill-456" fill="#1A1918" sketch:type="MSShapeGroup"></path>
        <path d="M26.498,53.938 C26.315,53.826 26.161,53.77 25.95,53.77 C25.501,53.77 25.079,54.107 25.079,54.527 L25.079,59.402 L23.211,59.402 L23.211,54.246 C23.211,53.447 23.112,52.94 23,52.392 L24.728,52.042 C24.784,52.238 24.897,52.575 24.883,52.94 C25.136,52.435 25.627,52 26.273,52 C26.54,52 26.751,52.07 26.975,52.181 L26.498,53.938 Z" id="Fill-458" fill="#1A1918" sketch:type="MSShapeGroup"></path>
        <path d="M30.54,53.813 C30.413,53.518 30.203,53.335 29.851,53.335 C29.247,53.335 28.967,53.77 28.952,54.951 L30.68,54.951 C30.68,54.474 30.652,54.08 30.54,53.813 L30.54,53.813 Z M28.952,56.285 L28.952,56.412 C28.952,56.791 28.995,57.17 29.163,57.479 C29.36,57.844 29.697,58.055 30.147,58.055 C30.708,58.055 31.214,57.802 31.734,57.339 L32.493,58.547 C31.72,59.249 30.933,59.544 30.034,59.544 C28.095,59.544 27,58.182 27,55.794 C27,54.557 27.253,53.617 27.773,52.942 C28.264,52.309 28.967,52 29.809,52 C30.638,52 31.256,52.267 31.706,52.746 C32.31,53.405 32.549,54.403 32.549,55.906 L32.549,56.285 L28.952,56.285 Z" id="Fill-460" fill="#1A1918" sketch:type="MSShapeGroup"></path>
        <path d="M34.529,59.571 C33.686,59.571 32.815,59.29 32,58.743 L32.618,57.323 C33.138,57.73 33.953,58.124 34.571,58.124 C35.02,58.124 35.372,57.801 35.372,57.422 C35.372,56.873 34.838,56.719 34.248,56.495 L33.742,56.297 C32.984,56.003 32.295,55.497 32.295,54.388 C32.295,52.955 33.25,52 34.711,52 C35.667,52 36.313,52.21 36.959,52.604 L36.383,53.924 C35.877,53.615 35.442,53.433 34.936,53.433 C34.529,53.433 34.262,53.657 34.262,53.98 C34.262,54.5 34.641,54.682 35.245,54.907 L35.793,55.118 C36.51,55.385 37.212,55.905 37.212,57.071 C37.212,58.602 36.13,59.571 34.529,59.571" id="Fill-462" fill="#1A1918" sketch:type="MSShapeGroup"></path>
        <path d="M40.444,59.483 C40.079,59.483 39.756,59.44 39.475,59.342 C38.927,59.145 38.59,58.653 38.59,57.768 L38.59,53.485 L38,53.485 L38,52.108 L38.59,52.108 C38.59,51.406 38.632,50.646 38.688,50.282 L40.515,50 C40.458,50.591 40.458,51.376 40.458,52.108 L41.709,52.108 L41.441,53.485 L40.444,53.485 L40.444,56.883 C40.444,57.839 40.585,58.077 41.147,58.077 C41.357,58.077 41.54,58.021 41.68,57.937 L41.919,59.103 C41.413,59.37 40.949,59.483 40.444,59.483" id="Fill-464" fill="#1A1918" sketch:type="MSShapeGroup"></path>
        <path d="M48.565,59.762 L44,59.762 L44,50 L45.91,50 L45.91,58.063 L48.917,58.063 L48.565,59.762 Z" id="Fill-466" fill="#1A1918" sketch:type="MSShapeGroup"></path>
        <path d="M51.865,53.462 C51.107,53.462 51.008,54.515 51.008,55.779 C51.008,56.861 51.023,58.097 51.893,58.097 C52.68,58.097 52.75,56.861 52.75,55.625 C52.75,54.515 52.68,53.462 51.865,53.462 M51.851,59.558 C49.856,59.558 49,57.858 49,55.779 C49,53.729 49.927,52 51.893,52 C53.523,52 54.773,53.153 54.773,55.667 C54.773,57.999 53.677,59.558 51.851,59.558" id="Fill-468" fill="#1A1918" sketch:type="MSShapeGroup"></path>
        <path d="M58.61,59.36 L58.61,54.542 C58.61,54.079 58.554,53.882 58.442,53.755 C58.343,53.629 58.174,53.615 57.993,53.615 C57.753,53.615 57.402,53.77 57.079,54.121 L57.079,59.36 L55.21,59.36 L55.21,54.205 C55.21,53.405 55.112,52.898 55,52.351 L56.728,52 C56.784,52.168 56.883,52.464 56.896,52.786 C57.289,52.337 58.034,52.015 58.75,52.015 C59.312,52.015 59.748,52.196 60.029,52.491 C60.352,52.828 60.478,53.348 60.478,53.84 L60.478,59.36 L58.61,59.36 Z" id="Fill-470" fill="#1A1918" sketch:type="MSShapeGroup"></path>
        <path d="M64.624,53.762 C64.511,53.538 64.244,53.411 63.936,53.411 C63.107,53.411 63.009,54.492 63.009,55.687 C63.009,56.571 63.065,57.794 63.907,57.794 C64.217,57.794 64.511,57.653 64.624,57.414 L64.624,53.762 Z M65.002,59.24 C64.947,59.114 64.905,58.903 64.891,58.721 C64.596,59.1 64.203,59.395 63.528,59.395 C61.912,59.395 61,58.047 61,55.757 C61,53.888 61.744,51.88 63.655,51.88 C64.048,51.88 64.469,52.063 64.694,52.274 C64.694,52.274 64.624,51.669 64.624,51.164 L64.624,49 L66.492,49.281 L66.492,57.358 C66.492,58.132 66.521,58.763 66.618,59.24 L65.002,59.24 Z" id="Fill-472" fill="#1A1918" sketch:type="MSShapeGroup"></path>
        <path d="M70.867,53.462 C70.109,53.462 70.011,54.515 70.011,55.779 C70.011,56.861 70.024,58.097 70.896,58.097 C71.682,58.097 71.752,56.861 71.752,55.625 C71.752,54.515 71.682,53.462 70.867,53.462 M70.853,59.558 C68.858,59.558 68,57.858 68,55.779 C68,53.729 68.928,52 70.896,52 C72.525,52 73.775,53.153 73.775,55.667 C73.775,57.999 72.679,59.558 70.853,59.558" id="Fill-474" fill="#1A1918" sketch:type="MSShapeGroup"></path>
        <path d="M77.61,59.36 L77.61,54.542 C77.61,54.079 77.553,53.882 77.442,53.755 C77.343,53.629 77.174,53.615 76.992,53.615 C76.753,53.615 76.402,53.77 76.079,54.121 L76.079,59.36 L74.211,59.36 L74.211,54.205 C74.211,53.405 74.111,52.898 74,52.351 L75.727,52 C75.783,52.168 75.882,52.464 75.896,52.786 C76.29,52.337 77.034,52.015 77.75,52.015 C78.312,52.015 78.747,52.196 79.028,52.491 C79.352,52.828 79.478,53.348 79.478,53.84 L79.478,59.36 L77.61,59.36 Z" id="Fill-476" fill="#1A1918" sketch:type="MSShapeGroup"></path>
        <path d="M1.19,64.636 C0.986,64.636 0.857,64.739 0.735,64.927 L0.735,66.594 C0.834,66.743 0.939,66.84 1.103,66.84 C1.599,66.84 1.605,66.101 1.605,65.712 C1.605,65.388 1.628,64.636 1.19,64.636 M1.254,67.451 C1.032,67.451 0.869,67.359 0.712,67.223 C0.712,67.223 0.735,67.561 0.735,67.709 L0.735,68.637 L0.07,68.792 L0.07,64.959 C0.07,64.551 0.034,64.311 0,64.13 L0.624,64 C0.642,64.058 0.677,64.208 0.671,64.376 C0.799,64.161 1.045,64 1.319,64 C2.142,64 2.311,64.881 2.311,65.628 C2.311,66.386 2.13,67.451 1.254,67.451" id="Fill-478" fill="#1A1918" sketch:type="MSShapeGroup"></path>
        <path d="M4.66,67.787 C4.438,67.787 4.293,67.715 4.199,67.598 C4.076,67.443 4.053,67.203 4.053,66.885 L4.053,63.83 C4.053,63.473 4.018,63.247 4,63.11 L4.654,63 C4.672,63.123 4.724,63.402 4.724,63.81 L4.724,66.639 C4.724,67.073 4.742,67.197 4.9,67.197 C4.923,67.197 4.964,67.184 4.981,67.177 L5.098,67.696 C4.987,67.754 4.841,67.787 4.66,67.787" id="Fill-480" fill="#1A1918" sketch:type="MSShapeGroup"></path>
        <path d="M7.314,65.868 C6.847,65.862 6.672,66.088 6.672,66.419 C6.672,66.697 6.783,66.873 6.999,66.873 C7.162,66.873 7.325,66.75 7.395,66.581 L7.401,65.874 C7.401,65.874 7.349,65.868 7.314,65.868 L7.314,65.868 Z M7.892,67.509 C7.745,67.451 7.6,67.275 7.553,67.114 C7.372,67.327 7.162,67.464 6.859,67.464 C6.222,67.464 6,66.977 6,66.451 C6,65.771 6.467,65.335 7.249,65.335 C7.32,65.335 7.407,65.343 7.407,65.343 L7.407,65.102 C7.407,64.908 7.401,64.778 7.343,64.701 C7.29,64.622 7.215,64.589 7.098,64.589 C6.806,64.589 6.526,64.746 6.327,64.947 L6.058,64.442 C6.391,64.175 6.783,64 7.186,64 C7.617,64 7.921,64.201 8.02,64.564 C8.067,64.727 8.078,64.908 8.072,65.175 L8.055,66.296 C8.049,66.686 8.072,66.873 8.259,67.016 L7.892,67.509 Z" id="Fill-482" fill="#1A1918" sketch:type="MSShapeGroup"></path>
        <path d="M11.518,67.372 L11.518,65.155 C11.518,64.902 11.494,64.798 11.442,64.726 C11.395,64.662 11.314,64.642 11.226,64.642 C11.098,64.642 10.905,64.746 10.748,64.934 L10.748,67.372 L10.088,67.372 L10.088,64.953 C10.088,64.558 10.035,64.338 10,64.156 L10.619,64 C10.636,64.059 10.695,64.22 10.701,64.389 C10.87,64.188 11.179,64.019 11.483,64.019 C11.716,64.019 11.903,64.11 12.02,64.253 C12.154,64.415 12.178,64.636 12.178,64.856 L12.178,67.372 L11.518,67.372 Z" id="Fill-484" fill="#1A1918" sketch:type="MSShapeGroup"></path>
        <path d="M14.981,67.346 C14.835,67.346 14.713,67.313 14.601,67.268 C14.391,67.178 14.269,66.951 14.269,66.567 L14.269,64.518 L14,64.518 L14,63.961 L14.269,63.961 C14.269,63.635 14.298,63.24 14.315,63.124 L14.963,63 C14.946,63.195 14.934,63.597 14.934,63.961 L15.489,63.961 L15.378,64.518 L14.928,64.518 L14.928,66.256 C14.928,66.672 14.993,66.788 15.232,66.788 C15.325,66.788 15.39,66.762 15.454,66.723 L15.547,67.184 C15.36,67.3 15.179,67.346 14.981,67.346" id="Fill-486" fill="#1A1918" sketch:type="MSShapeGroup"></path>
        <path d="M17.111,67.688 L17.111,64.42 L17.782,64.335 L17.782,67.688 L17.111,67.688 Z M17.432,63.96 C17.193,63.96 17,63.745 17,63.479 C17,63.214 17.199,63 17.444,63 C17.683,63 17.876,63.214 17.876,63.479 C17.876,63.745 17.677,63.96 17.432,63.96 L17.432,63.96 Z" id="Fill-488" fill="#1A1918" sketch:type="MSShapeGroup"></path>
        <path d="M20.517,67.372 L20.517,65.155 C20.517,64.902 20.493,64.798 20.441,64.726 C20.395,64.662 20.313,64.642 20.225,64.642 C20.096,64.642 19.904,64.746 19.746,64.934 L19.746,67.372 L19.087,67.372 L19.087,64.953 C19.087,64.558 19.034,64.338 19,64.156 L19.618,64 C19.635,64.059 19.694,64.22 19.7,64.389 C19.869,64.188 20.178,64.019 20.482,64.019 C20.716,64.019 20.903,64.11 21.019,64.253 C21.153,64.415 21.177,64.636 21.177,64.856 L21.177,67.372 L20.517,67.372 Z" id="Fill-490" fill="#1A1918" sketch:type="MSShapeGroup"></path>
        <path d="M24.127,64.545 C23.864,64.545 23.742,64.746 23.742,65.091 C23.742,65.421 23.864,65.622 24.132,65.622 C24.396,65.622 24.512,65.421 24.512,65.083 C24.512,64.74 24.401,64.545 24.127,64.545 M25.213,64.655 C25.166,64.655 25.113,64.649 25.073,64.636 C25.142,64.733 25.213,64.915 25.213,65.116 C25.213,65.868 24.6,66.18 24.004,66.154 C23.835,66.251 23.782,66.316 23.782,66.394 C23.782,66.543 23.981,66.511 24.057,66.517 L24.605,66.549 C24.845,66.562 25.038,66.66 25.166,66.803 C25.318,66.965 25.382,67.165 25.382,67.425 C25.382,68.086 25.014,68.593 24.156,68.593 C23.31,68.593 23,68.184 23,67.755 C23,67.626 23.018,67.496 23.041,67.373 L23.666,67.353 C23.648,67.418 23.631,67.542 23.631,67.62 C23.631,67.924 23.841,68.035 24.168,68.035 C24.53,68.035 24.705,67.821 24.705,67.542 C24.705,67.204 24.53,67.14 24.162,67.127 L23.73,67.114 C23.362,67.101 23.169,66.92 23.169,66.582 C23.169,66.349 23.315,66.154 23.59,66.03 C23.251,65.881 23.059,65.519 23.059,65.11 C23.059,64.364 23.549,64 24.139,64 C24.536,64 24.664,64.162 24.775,64.162 C24.909,64.162 25.142,64.156 25.277,64.04 L25.539,64.527 C25.429,64.617 25.335,64.649 25.213,64.655" id="Fill-492" fill="#1A1918" sketch:type="MSShapeGroup"></path>
        <path d="M29.981,67.346 C29.835,67.346 29.713,67.313 29.602,67.268 C29.391,67.178 29.269,66.951 29.269,66.567 L29.269,64.518 L29,64.518 L29,63.961 L29.269,63.961 C29.269,63.635 29.298,63.24 29.315,63.124 L29.964,63 C29.946,63.195 29.934,63.597 29.934,63.961 L30.489,63.961 L30.378,64.518 L29.928,64.518 L29.928,66.256 C29.928,66.672 29.993,66.788 30.232,66.788 C30.325,66.788 30.389,66.762 30.454,66.723 L30.547,67.184 C30.36,67.3 30.179,67.346 29.981,67.346" id="Fill-494" fill="#1A1918" sketch:type="MSShapeGroup"></path>
        <path d="M33.512,67.72 L33.512,65.516 C33.512,65.321 33.488,65.211 33.441,65.139 C33.389,65.068 33.313,65.035 33.214,65.035 C33.068,65.035 32.881,65.126 32.718,65.359 L32.718,67.72 L32.052,67.72 L32.052,63.822 C32.052,63.466 32.017,63.246 32,63.11 L32.66,63 C32.677,63.122 32.718,63.401 32.718,63.81 L32.718,64.367 C32.718,64.536 32.706,64.704 32.706,64.704 C32.875,64.504 33.15,64.367 33.453,64.367 C33.687,64.367 33.874,64.458 33.99,64.601 C34.125,64.763 34.166,65.01 34.166,65.23 L34.166,67.72 L33.512,67.72 Z" id="Fill-496" fill="#1A1918" sketch:type="MSShapeGroup"></path>
        <path d="M37.483,64.778 C37.419,64.629 37.314,64.537 37.145,64.537 C36.847,64.537 36.719,64.804 36.707,65.388 L37.559,65.388 C37.559,65.128 37.536,64.908 37.483,64.778 L37.483,64.778 Z M36.707,65.913 L36.707,65.978 C36.707,66.192 36.725,66.387 36.806,66.555 C36.905,66.756 37.075,66.867 37.279,66.867 C37.518,66.867 37.722,66.749 37.927,66.542 L38.19,67.015 C37.898,67.32 37.583,67.457 37.221,67.457 C36.444,67.457 36,66.814 36,65.724 C36,65.161 36.1,64.745 36.316,64.434 C36.52,64.142 36.8,64 37.138,64 C37.459,64 37.717,64.123 37.898,64.35 C38.137,64.648 38.23,65.05 38.23,65.771 L38.23,65.913 L36.707,65.913 Z" id="Fill-498" fill="#1A1918" sketch:type="MSShapeGroup"></path>
        <path d="M42.483,62.667 C42.407,62.61 42.285,62.57 42.168,62.57 C42.005,62.57 41.905,62.72 41.905,62.972 L41.905,63.479 L42.524,63.479 L42.402,64.036 L41.905,64.036 L41.905,66.766 L41.228,66.766 L41.228,64.036 L41,64.036 L41,63.479 L41.228,63.479 C41.228,63.479 41.216,63.252 41.216,63.044 C41.216,62.551 41.386,62.292 41.543,62.162 C41.701,62.038 41.882,62 42.051,62 C42.296,62 42.495,62.052 42.67,62.175 L42.483,62.667 Z" id="Fill-500" fill="#1A1918" sketch:type="MSShapeGroup"></path>
        <path d="M45.728,67.47 C45.617,67.34 45.57,67.217 45.547,67.081 C45.371,67.328 45.138,67.464 44.817,67.464 C44.315,67.464 44,67.152 44,66.303 L44,64.117 L44.665,64 L44.665,66.367 C44.665,66.659 44.701,66.86 44.998,66.86 C45.19,66.86 45.307,66.724 45.448,66.498 L45.448,64.117 L46.107,64.007 L46.107,66.4 C46.107,66.776 46.165,66.97 46.265,67.133 L45.728,67.47 Z" id="Fill-502" fill="#1A1918" sketch:type="MSShapeGroup"></path>
        <path d="M48.98,67.346 C48.834,67.346 48.711,67.313 48.6,67.268 C48.39,67.178 48.268,66.951 48.268,66.567 L48.268,64.518 L48,64.518 L48,63.961 L48.268,63.961 C48.268,63.635 48.297,63.24 48.315,63.124 L48.962,63 C48.945,63.195 48.933,63.597 48.933,63.961 L49.488,63.961 L49.377,64.518 L48.927,64.518 L48.927,66.256 C48.927,66.672 48.992,66.788 49.23,66.788 C49.324,66.788 49.388,66.762 49.453,66.723 L49.546,67.184 C49.359,67.3 49.178,67.346 48.98,67.346" id="Fill-504" fill="#1A1918" sketch:type="MSShapeGroup"></path>
        <path d="M52.728,67.47 C52.617,67.34 52.57,67.217 52.547,67.081 C52.372,67.328 52.138,67.464 51.817,67.464 C51.314,67.464 51,67.152 51,66.303 L51,64.117 L51.665,64 L51.665,66.367 C51.665,66.659 51.701,66.86 51.998,66.86 C52.191,66.86 52.307,66.724 52.448,66.498 L52.448,64.117 L53.107,64.007 L53.107,66.4 C53.107,66.776 53.166,66.97 53.265,67.133 L52.728,67.47 Z" id="Fill-506" fill="#1A1918" sketch:type="MSShapeGroup"></path>
        <path d="M56.366,64.791 C56.307,64.751 56.249,64.726 56.173,64.726 C55.945,64.726 55.753,64.927 55.753,65.18 L55.753,67.391 L55.087,67.391 L55.087,64.978 C55.087,64.577 55.035,64.35 55,64.168 L55.624,64.019 C55.642,64.084 55.7,64.253 55.694,64.454 C55.794,64.162 56.044,64 56.301,64 C56.401,64 56.494,64.038 56.558,64.07 L56.366,64.791 Z" id="Fill-508" fill="#1A1918" sketch:type="MSShapeGroup"></path>
        <path d="M58.483,64.778 C58.419,64.629 58.313,64.537 58.144,64.537 C57.846,64.537 57.719,64.804 57.707,65.388 L58.559,65.388 C58.559,65.128 58.535,64.908 58.483,64.778 L58.483,64.778 Z M57.707,65.913 L57.707,65.978 C57.707,66.192 57.724,66.387 57.806,66.555 C57.905,66.756 58.074,66.867 58.279,66.867 C58.518,66.867 58.722,66.749 58.926,66.542 L59.189,67.015 C58.897,67.32 58.582,67.457 58.22,67.457 C57.444,67.457 57,66.814 57,65.724 C57,65.161 57.099,64.745 57.315,64.434 C57.519,64.142 57.8,64 58.138,64 C58.459,64 58.716,64.123 58.897,64.35 C59.137,64.648 59.23,65.05 59.23,65.771 L59.23,65.913 L57.707,65.913 Z" id="Fill-510" fill="#1A1918" sketch:type="MSShapeGroup"></path>
        <path d="M63.981,67.346 C63.836,67.346 63.713,67.313 63.602,67.268 C63.392,67.178 63.269,66.951 63.269,66.567 L63.269,64.518 L63,64.518 L63,63.961 L63.269,63.961 C63.269,63.635 63.298,63.24 63.316,63.124 L63.964,63 C63.946,63.195 63.935,63.597 63.935,63.961 L64.489,63.961 L64.378,64.518 L63.928,64.518 L63.928,66.256 C63.928,66.672 63.993,66.788 64.233,66.788 C64.325,66.788 64.389,66.762 64.454,66.723 L64.548,67.184 C64.361,67.3 64.179,67.346 63.981,67.346" id="Fill-512" fill="#1A1918" sketch:type="MSShapeGroup"></path>
        <path d="M67.1560869,64.584 C66.7120869,64.584 66.7120869,65.362 66.7120869,65.699 C66.7120869,66.055 66.7000869,66.879 67.1740869,66.879 C67.6110869,66.879 67.6110869,66.055 67.6110869,65.712 C67.6110869,65.355 67.6290869,64.584 67.1560869,64.584 M67.1560869,67.464 C66.2440869,67.464 66.0060869,66.529 66.0000869,65.725 C65.9940869,64.915 66.2980869,64 67.1610869,64 C67.8450869,64 68.3350869,64.589 68.3350869,65.712 C68.3350869,66.549 68.0490869,67.464 67.1560869,67.464" id="Fill-514" fill="#1A1918" sketch:type="MSShapeGroup"></path>
        <path d="M70.564,64.186 C70.494,64.051 70.36,63.972 70.179,63.972 C69.724,63.972 69.718,64.757 69.718,65.101 C69.718,65.438 69.712,66.164 70.161,66.164 C70.33,66.164 70.506,66.073 70.564,65.912 L70.564,64.186 Z M70.693,66.728 C70.675,66.691 70.646,66.573 70.64,66.463 C70.506,66.658 70.33,66.793 70.045,66.793 C69.38,66.793 69,66.178 69,65.127 C69,64.388 69.275,63.369 70.08,63.369 C70.278,63.369 70.477,63.473 70.588,63.609 C70.588,63.609 70.564,63.35 70.564,63.115 L70.564,62 L71.224,62.111 L71.224,65.808 C71.224,66.223 71.242,66.515 71.289,66.728 L70.693,66.728 Z" id="Fill-516" fill="#1A1918" sketch:type="MSShapeGroup"></path>
        <path d="M74.313,65.868 C73.847,65.862 73.671,66.088 73.671,66.419 C73.671,66.697 73.782,66.873 73.998,66.873 C74.162,66.873 74.325,66.75 74.395,66.581 L74.401,65.874 C74.401,65.874 74.348,65.868 74.313,65.868 L74.313,65.868 Z M74.891,67.509 C74.745,67.451 74.599,67.275 74.552,67.114 C74.372,67.327 74.162,67.464 73.858,67.464 C73.221,67.464 73,66.977 73,66.451 C73,65.771 73.467,65.335 74.249,65.335 C74.32,65.335 74.406,65.343 74.406,65.343 L74.406,65.102 C74.406,64.908 74.401,64.778 74.343,64.701 C74.29,64.622 74.214,64.589 74.097,64.589 C73.806,64.589 73.525,64.746 73.326,64.947 L73.058,64.442 C73.39,64.175 73.782,64 74.185,64 C74.616,64 74.92,64.201 75.02,64.564 C75.066,64.727 75.078,64.908 75.072,65.175 L75.055,66.296 C75.049,66.686 75.072,66.873 75.258,67.016 L74.891,67.509 Z" id="Fill-518" fill="#1A1918" sketch:type="MSShapeGroup"></path>
        <path d="M78.622,67.424 C78.395,68.261 78.062,68.682 77.507,68.793 L77.279,68.255 C77.717,68.112 77.875,67.95 78.033,67.365 L77.817,67.38 C77.782,67.146 77.671,66.673 77.595,66.38 L77,64.124 L77.665,64 L78.121,65.919 C78.179,66.16 78.261,66.698 78.261,66.698 C78.261,66.698 78.36,66.16 78.424,65.894 L78.861,64.071 L79.544,64.071 L78.622,67.424 Z" id="Fill-520" fill="#1A1918" sketch:type="MSShapeGroup"></path>
        <path d="M43.7654194,39.9847846 C44.4594194,39.9167846 44.5984194,39.8487846 44.8764194,39.7487846 C46.9594194,39.1397846 46.4114194,35.4167846 46.4114194,35.4167846 C46.4114194,35.4167846 45.8564194,35.5857846 45.5084194,35.5187846 C45.1614194,35.4507846 44.7054194,35.1967846 44.6764194,35.0777846 C42.9404194,35.4147846 42.3504194,34.0957846 42.4194194,33.8247846 C42.4194194,33.8247846 40.9264194,33.7907846 40.8234194,33.0127846 C40.5104194,32.7747846 39.5384194,32.1327846 40.4414194,31.2517846 C39.8524194,30.5077846 39.2974194,26.0957846 42.7004194,26.0297846 C42.9084194,24.6077846 45.5124194,24.2507846 45.7564194,24.4547846 C46.2414194,23.9467846 47.2844194,23.9127846 47.5274194,24.1167846 C48.0824194,23.8797846 48.4634194,24.0827846 48.6034194,24.2517846 C48.9854194,23.9477846 49.4364194,24.0497846 49.5754194,24.2867846 C50.2004194,23.7787846 51.0694194,24.5087846 51.2764194,24.6447846 C51.9014194,24.5097846 52.3174194,25.5927846 52.2824194,25.9307846 C52.7684194,25.8637846 52.9424194,26.0327846 52.9764194,26.1687846 C53.3594194,25.9647846 54.2614194,27.6707846 54.2954194,28.3477846 C55.0604194,28.7877846 55.1294194,29.3627846 54.8854194,29.7017846 C55.8924194,30.0067846 55.3704194,32.3067846 54.7464194,32.2057846 C54.9194194,33.2207846 53.9814194,33.5917846 53.7734194,33.5247846 C53.6004194,34.2357846 52.5234194,35.1147846 52.0374194,34.8097846 C51.6544194,35.6217846 50.1274194,35.9597846 49.6754194,35.4867846 C49.5364194,35.9927846 49.1544194,35.6217846 49.0854194,35.4857846 C49.0854194,36.1957846 47.8694194,38.9027846 51.8614194,40.5617846 C52.4174194,40.7647846 49.6734194,40.1217846 49.2224194,40.0877846 C49.1524194,40.4257846 48.9104194,40.5277846 49.1884194,40.6637846 C47.6264194,39.8497846 43.7654194,39.9847846 43.7654194,39.9847846" id="Fill-522" fill="#007C4C" sketch:type="MSShapeGroup"></path>
        <path d="M28.858619,40.427989 C29.385619,40.376989 29.490619,40.324989 29.702619,40.248989 C31.283619,39.786989 30.867619,36.666989 30.867619,36.666989 C30.867619,36.666989 30.445619,36.794989 30.182619,36.742989 C29.918619,36.691989 29.571619,36.498989 29.550619,36.408989 C28.232619,36.665989 27.784619,35.663989 27.836619,35.457989 C27.836619,35.457989 26.703619,35.431989 26.624619,34.840989 C26.387619,34.660989 25.649619,34.172989 26.335619,33.504989 C25.887619,32.939989 25.466619,29.590989 28.050619,29.539989 C28.208619,28.460989 30.184619,28.189989 30.369619,28.344989 C30.738619,27.959989 31.529619,27.933989 31.714619,28.087989 C32.135619,27.907989 32.425619,28.061989 32.531619,28.190989 C32.821619,27.959989 33.163619,28.037989 33.268619,28.216989 C33.743619,27.831989 34.402619,28.385989 34.560619,28.487989 C35.034619,28.385989 35.350619,29.208989 35.324619,29.464989 C35.693619,29.413989 35.825619,29.542989 35.851619,29.645989 C36.141619,29.491989 36.826619,30.785989 36.853619,31.299989 C37.432619,31.633989 37.485619,32.070989 37.300619,32.326989 C38.065619,32.558989 37.668619,34.304989 37.194619,34.227989 C37.325619,34.999989 36.614619,35.280989 36.456619,35.229989 C36.324619,35.769989 35.507619,36.436989 35.137619,36.205989 C34.847619,36.822989 33.688619,37.078989 33.345619,36.718989 C33.239619,37.104989 32.950619,36.820989 32.897619,36.718989 C32.897619,37.257989 31.973619,39.312989 35.004619,40.571989 C35.426619,40.726989 33.343619,40.237989 33.001619,40.212989 C32.948619,40.468989 32.764619,40.545989 32.975619,40.648989 C31.789619,40.031989 28.858619,40.427989 28.858619,40.427989" id="Fill-524" fill="#007C4C" sketch:type="MSShapeGroup"></path>
        <path d="M17.7408587,43.4899725 C18.1178587,43.4529725 18.1918587,43.4169725 18.3428587,43.3609725 C19.7378587,42.9999725 19.4758587,40.1879725 19.4758587,40.1879725 C19.4758587,40.1879725 19.1738587,40.2799725 18.9858587,40.2429725 C18.7978587,40.2059725 18.5498587,40.0689725 18.5348587,40.0039725 C17.5938587,40.1869725 17.2738587,39.4709725 17.3118587,39.3249725 C17.3118587,39.3249725 16.5028587,39.3069725 16.4458587,38.8849725 C16.2768587,38.7559725 15.7498587,38.4079725 16.2398587,37.9309725 C15.9198587,37.5269725 15.6188587,35.1359725 17.4638587,35.0999725 C17.5768587,34.3289725 18.9878587,34.1359725 19.1198587,34.2469725 C19.3828587,33.9709725 19.9478587,33.9529725 20.0798587,34.0629725 C20.3808587,33.9339725 20.5878587,34.0439725 20.6628587,34.1369725 C20.8708587,33.9719725 21.1148587,34.0269725 21.1898587,34.1549725 C21.5288587,33.8809725 21.9988587,34.2759725 22.1118587,34.3489725 C22.4508587,34.2759725 22.6758587,34.8629725 22.6578587,35.0469725 C22.9208587,35.0099725 23.0148587,35.1009725 23.0338587,35.1749725 C23.2408587,35.0649725 23.7308587,35.9889725 23.7488587,36.3569725 C24.1628587,36.5949725 24.1998587,36.9069725 24.0688587,37.0899725 C24.6138587,37.2549725 24.3318587,38.5019725 23.9928587,38.4469725 C24.0868587,38.9979725 23.5778587,39.1979725 23.4658587,39.1629725 C23.3718587,39.5479725 22.7878587,40.0239725 22.5248587,39.8599725 C22.3168587,40.2999725 21.4888587,40.4819725 21.2438587,40.2259725 C21.1688587,40.5009725 20.9618587,40.2979725 20.9248587,40.2249725 C20.9248587,40.6099725 20.2658587,42.9039725 22.4288587,43.8029725 C22.7298587,43.9139725 21.2438587,43.5639725 20.9998587,43.5469725 C20.9608587,43.7289725 20.8298587,43.7859725 20.9808587,43.8579725 C20.1328587,43.4169725 17.7408587,43.4899725 17.7408587,43.4899725" id="Fill-526" fill="#007C4C" sketch:type="MSShapeGroup"></path>
        <path d="M36,23.667 L49.193,12 L65.41,23.825 C65.41,23.825 61.089,24.858 49.419,15.619 C49.419,15.619 43.655,23.374 38.122,23.594 C37.062,23.636 36,23.667 36,23.667" id="Fill-528" fill="#007C4C" sketch:type="MSShapeGroup"></path>
        <path d="M61.006,22.7291207 L61,38.5151207 C61,38.5151207 64.023,39.3561207 62.597,22.3941207 C62.508,21.3421207 61.006,22.7291207 61.006,22.7291207" id="Fill-530" fill="#007C4C" sketch:type="MSShapeGroup"></path>
        <path d="M25.9798979,2.16856976 L25.9698979,27.4665698 C25.9698979,27.4665698 22.9478979,28.8105698 24.3898979,1.63056976 C24.4788979,-0.0534302444 25.9798979,2.16856976 25.9798979,2.16856976" id="Fill-532" fill="#007C4C" sketch:type="MSShapeGroup"></path>
        <path d="M43.005,1.6363612 L43,15.4053612 C43,15.4053612 46.022,16.1373612 44.596,1.3433612 C44.508,0.426361195 43.005,1.6363612 43.005,1.6363612" id="Fill-534" fill="#007C4C" sketch:type="MSShapeGroup"></path>
        <path d="M25.9610866,2.7317733 L45.3830866,1.9287733 C45.3830866,1.9287733 46.2630866,-1.6162267 25.4680866,0.905773301 C24.1790866,1.0617733 25.9610866,2.7317733 25.9610866,2.7317733" id="Fill-536" fill="#007C4C" sketch:type="MSShapeGroup"></path>
        <path d="M28.6190024,6.92366531 L42.0210024,6.92866531 C42.0210024,6.92866531 42.7360024,3.98266531 28.3340024,5.37266531 C27.4420024,5.45966531 28.6190024,6.92366531 28.6190024,6.92366531" id="Fill-538" fill="#007C4C" sketch:type="MSShapeGroup"></path>
        <path d="M28.6190024,9.92366531 L42.0220024,9.92866531 C42.0220024,9.92866531 42.7360024,6.98266531 28.3340024,8.37266531 C27.4420024,8.45966531 28.6190024,9.92366531 28.6190024,9.92366531" id="Fill-540" fill="#007C4C" sketch:type="MSShapeGroup"></path>
        <path d="M64,43 C61.090784,41.4001798 43.0749059,34.99102 18,43 C17.0753528,43.1912432 12.5394685,44.8611068 13,46 L67,46 C66.8503996,45.2218205 66.249006,43.798204 64,43" id="Fill-542" fill="#007C4C" sketch:type="MSShapeGroup"></path>
    </g>
</svg>